<mxfile host="app.diagrams.net" modified="2022-11-18T10:21:32.748Z" agent="5.0 (Windows NT 10.0; Win64; x64) AppleWebKit/537.36 (KHTML, like Gecko) Chrome/107.0.0.0 Safari/537.36" etag="BBSRUry7iHFp8KY8XWUL" version="20.5.3" type="github">
  <diagram id="xljxgBAA948Y7_NDT7y9" name="第 1 页">
    <mxGraphModel dx="2062" dy="1199" grid="1" gridSize="10" guides="1" tooltips="1" connect="1" arrows="1" fold="1" page="1" pageScale="1" pageWidth="827" pageHeight="1169" math="0" shadow="0">
      <root>
        <mxCell id="0" />
        <mxCell id="1" parent="0" />
        <mxCell id="MCfXwNq7JkfHjDpAj2Ck-29" style="edgeStyle=orthogonalEdgeStyle;rounded=0;orthogonalLoop=1;jettySize=auto;html=1;entryX=0.5;entryY=0;entryDx=0;entryDy=0;fontSize=18;fillColor=#1ba1e2;strokeColor=#006EAF;strokeWidth=1;" edge="1" parent="1" source="MCfXwNq7JkfHjDpAj2Ck-2" target="MCfXwNq7JkfHjDpAj2Ck-27">
          <mxGeometry relative="1" as="geometry" />
        </mxCell>
        <mxCell id="MCfXwNq7JkfHjDpAj2Ck-2" value="API" style="rounded=0;whiteSpace=wrap;html=1;fillColor=#0992E2;strokeColor=#006EAF;strokeWidth=0;glass=0;shadow=0;sketch=0;fontColor=#ffffff;fontSize=18;fontStyle=1;gradientColor=#1BA1E2;gradientDirection=north;" vertex="1" parent="1">
          <mxGeometry x="770" y="330" width="200" height="40" as="geometry" />
        </mxCell>
        <mxCell id="MCfXwNq7JkfHjDpAj2Ck-35" style="edgeStyle=orthogonalEdgeStyle;rounded=0;orthogonalLoop=1;jettySize=auto;html=1;entryX=0;entryY=0.5;entryDx=0;entryDy=0;strokeWidth=1;fontSize=18;fillColor=#1ba1e2;strokeColor=#006EAF;" edge="1" parent="1" source="MCfXwNq7JkfHjDpAj2Ck-3" target="MCfXwNq7JkfHjDpAj2Ck-27">
          <mxGeometry relative="1" as="geometry" />
        </mxCell>
        <mxCell id="MCfXwNq7JkfHjDpAj2Ck-41" value="DAG切分" style="edgeLabel;html=1;align=center;verticalAlign=middle;resizable=0;points=[];fontSize=12;" vertex="1" connectable="0" parent="MCfXwNq7JkfHjDpAj2Ck-35">
          <mxGeometry x="-0.0691" relative="1" as="geometry">
            <mxPoint as="offset" />
          </mxGeometry>
        </mxCell>
        <mxCell id="MCfXwNq7JkfHjDpAj2Ck-36" style="edgeStyle=orthogonalEdgeStyle;rounded=0;orthogonalLoop=1;jettySize=auto;html=1;entryX=0;entryY=0.25;entryDx=0;entryDy=0;strokeWidth=1;fontSize=14;exitX=1;exitY=0.268;exitDx=0;exitDy=0;fillColor=#1ba1e2;strokeColor=#006EAF;exitPerimeter=0;" edge="1" parent="1" source="MCfXwNq7JkfHjDpAj2Ck-3" target="MCfXwNq7JkfHjDpAj2Ck-27">
          <mxGeometry relative="1" as="geometry">
            <Array as="points" />
          </mxGeometry>
        </mxCell>
        <mxCell id="MCfXwNq7JkfHjDpAj2Ck-40" value="监听任务" style="edgeLabel;html=1;align=center;verticalAlign=middle;resizable=0;points=[];fontSize=12;" vertex="1" connectable="0" parent="MCfXwNq7JkfHjDpAj2Ck-36">
          <mxGeometry x="-0.221" y="1" relative="1" as="geometry">
            <mxPoint y="-13" as="offset" />
          </mxGeometry>
        </mxCell>
        <mxCell id="MCfXwNq7JkfHjDpAj2Ck-37" style="edgeStyle=orthogonalEdgeStyle;rounded=0;orthogonalLoop=1;jettySize=auto;html=1;entryX=0.011;entryY=0.791;entryDx=0;entryDy=0;entryPerimeter=0;strokeWidth=1;fontSize=18;fillColor=#1ba1e2;strokeColor=#006EAF;" edge="1" parent="1" source="MCfXwNq7JkfHjDpAj2Ck-3" target="MCfXwNq7JkfHjDpAj2Ck-27">
          <mxGeometry relative="1" as="geometry">
            <Array as="points">
              <mxPoint x="1206" y="530" />
            </Array>
          </mxGeometry>
        </mxCell>
        <mxCell id="MCfXwNq7JkfHjDpAj2Ck-42" value="监听任务状态" style="edgeLabel;html=1;align=center;verticalAlign=middle;resizable=0;points=[];fontSize=12;" vertex="1" connectable="0" parent="MCfXwNq7JkfHjDpAj2Ck-37">
          <mxGeometry x="-0.0731" relative="1" as="geometry">
            <mxPoint as="offset" />
          </mxGeometry>
        </mxCell>
        <mxCell id="MCfXwNq7JkfHjDpAj2Ck-45" style="edgeStyle=orthogonalEdgeStyle;rounded=0;orthogonalLoop=1;jettySize=auto;html=1;entryX=0.438;entryY=0.013;entryDx=0;entryDy=0;entryPerimeter=0;strokeWidth=1;fontSize=12;fillColor=#1ba1e2;strokeColor=#006EAF;" edge="1" parent="1" source="MCfXwNq7JkfHjDpAj2Ck-3" target="MCfXwNq7JkfHjDpAj2Ck-9">
          <mxGeometry relative="1" as="geometry">
            <Array as="points">
              <mxPoint x="830" y="590" />
              <mxPoint x="830" y="590" />
            </Array>
          </mxGeometry>
        </mxCell>
        <mxCell id="MCfXwNq7JkfHjDpAj2Ck-48" value="dispatcher" style="edgeLabel;html=1;align=center;verticalAlign=middle;resizable=0;points=[];fontSize=12;" vertex="1" connectable="0" parent="MCfXwNq7JkfHjDpAj2Ck-45">
          <mxGeometry x="-0.1034" relative="1" as="geometry">
            <mxPoint as="offset" />
          </mxGeometry>
        </mxCell>
        <mxCell id="MCfXwNq7JkfHjDpAj2Ck-46" style="edgeStyle=orthogonalEdgeStyle;rounded=0;orthogonalLoop=1;jettySize=auto;html=1;entryX=0.56;entryY=-0.013;entryDx=0;entryDy=0;strokeWidth=1;fontSize=12;entryPerimeter=0;startArrow=classic;startFill=1;endArrow=none;endFill=0;fillColor=#1ba1e2;strokeColor=#006EAF;" edge="1" parent="1" source="MCfXwNq7JkfHjDpAj2Ck-3" target="MCfXwNq7JkfHjDpAj2Ck-9">
          <mxGeometry relative="1" as="geometry">
            <Array as="points">
              <mxPoint x="899" y="610" />
            </Array>
          </mxGeometry>
        </mxCell>
        <mxCell id="MCfXwNq7JkfHjDpAj2Ck-49" value="ack、response" style="edgeLabel;html=1;align=center;verticalAlign=middle;resizable=0;points=[];fontSize=12;" vertex="1" connectable="0" parent="MCfXwNq7JkfHjDpAj2Ck-46">
          <mxGeometry x="0.0372" relative="1" as="geometry">
            <mxPoint x="41" y="-12" as="offset" />
          </mxGeometry>
        </mxCell>
        <mxCell id="MCfXwNq7JkfHjDpAj2Ck-3" value="" style="rounded=0;whiteSpace=wrap;html=1;shadow=0;glass=0;sketch=0;strokeWidth=0;fontSize=18;fillColor=#CCCCCC;strokeColor=#23445d;" vertex="1" parent="1">
          <mxGeometry x="587.5" y="460" width="565" height="90" as="geometry" />
        </mxCell>
        <mxCell id="MCfXwNq7JkfHjDpAj2Ck-26" style="edgeStyle=orthogonalEdgeStyle;rounded=0;orthogonalLoop=1;jettySize=auto;html=1;fontSize=18;fillColor=#1ba1e2;strokeColor=#006EAF;strokeWidth=1;" edge="1" parent="1" source="MCfXwNq7JkfHjDpAj2Ck-4" target="MCfXwNq7JkfHjDpAj2Ck-2">
          <mxGeometry relative="1" as="geometry" />
        </mxCell>
        <mxCell id="MCfXwNq7JkfHjDpAj2Ck-50" value="接口调用" style="edgeLabel;html=1;align=center;verticalAlign=middle;resizable=0;points=[];fontSize=12;" vertex="1" connectable="0" parent="MCfXwNq7JkfHjDpAj2Ck-26">
          <mxGeometry x="-0.1349" relative="1" as="geometry">
            <mxPoint as="offset" />
          </mxGeometry>
        </mxCell>
        <mxCell id="MCfXwNq7JkfHjDpAj2Ck-4" value="UI" style="rounded=0;whiteSpace=wrap;html=1;fillColor=#0992E2;strokeColor=#006EAF;strokeWidth=0;glass=0;shadow=0;sketch=0;fontColor=#ffffff;fontSize=18;fontStyle=1;gradientColor=#1BA1E2;gradientDirection=north;" vertex="1" parent="1">
          <mxGeometry x="770" y="220" width="200" height="40" as="geometry" />
        </mxCell>
        <mxCell id="MCfXwNq7JkfHjDpAj2Ck-31" style="edgeStyle=orthogonalEdgeStyle;rounded=0;orthogonalLoop=1;jettySize=auto;html=1;strokeWidth=1;fontSize=18;fillColor=#1ba1e2;strokeColor=#006EAF;" edge="1" parent="1" source="MCfXwNq7JkfHjDpAj2Ck-5" target="MCfXwNq7JkfHjDpAj2Ck-8">
          <mxGeometry relative="1" as="geometry" />
        </mxCell>
        <mxCell id="MCfXwNq7JkfHjDpAj2Ck-5" value="MasterServer" style="rounded=0;whiteSpace=wrap;html=1;fillColor=#0992E2;strokeColor=#006EAF;strokeWidth=0;glass=0;shadow=0;sketch=0;fontColor=#ffffff;fontSize=18;fontStyle=1;gradientColor=#1BA1E2;gradientDirection=north;" vertex="1" parent="1">
          <mxGeometry x="600" y="475" width="150" height="60" as="geometry" />
        </mxCell>
        <mxCell id="MCfXwNq7JkfHjDpAj2Ck-6" value="MasterServer" style="rounded=0;whiteSpace=wrap;html=1;fillColor=#0992E2;strokeColor=#006EAF;strokeWidth=0;glass=0;shadow=0;sketch=0;fontColor=#ffffff;fontSize=18;fontStyle=1;gradientColor=#1BA1E2;gradientDirection=north;" vertex="1" parent="1">
          <mxGeometry x="790" y="475" width="150" height="60" as="geometry" />
        </mxCell>
        <mxCell id="MCfXwNq7JkfHjDpAj2Ck-7" value="MasterServer" style="rounded=0;whiteSpace=wrap;html=1;fillColor=#0992E2;strokeColor=#006EAF;strokeWidth=0;glass=0;shadow=0;sketch=0;fontColor=#ffffff;fontSize=18;fontStyle=1;gradientColor=#1BA1E2;gradientDirection=north;" vertex="1" parent="1">
          <mxGeometry x="980" y="475" width="150" height="60" as="geometry" />
        </mxCell>
        <mxCell id="MCfXwNq7JkfHjDpAj2Ck-8" value="Zookeeper" style="rounded=0;whiteSpace=wrap;html=1;shadow=0;glass=0;sketch=0;strokeWidth=0;fontSize=18;fillColor=#60a917;gradientDirection=north;fontColor=#ffffff;strokeColor=#2D7600;gradientColor=#00CC00;" vertex="1" parent="1">
          <mxGeometry x="320" y="590" width="160" height="50" as="geometry" />
        </mxCell>
        <mxCell id="MCfXwNq7JkfHjDpAj2Ck-25" style="edgeStyle=orthogonalEdgeStyle;rounded=0;orthogonalLoop=1;jettySize=auto;html=1;entryX=0.473;entryY=0.01;entryDx=0;entryDy=0;entryPerimeter=0;fontSize=18;fillColor=#1ba1e2;strokeColor=#006EAF;" edge="1" parent="1" source="MCfXwNq7JkfHjDpAj2Ck-9" target="MCfXwNq7JkfHjDpAj2Ck-18">
          <mxGeometry relative="1" as="geometry" />
        </mxCell>
        <mxCell id="MCfXwNq7JkfHjDpAj2Ck-44" value="执行任务" style="edgeLabel;html=1;align=center;verticalAlign=middle;resizable=0;points=[];fontSize=12;" vertex="1" connectable="0" parent="MCfXwNq7JkfHjDpAj2Ck-25">
          <mxGeometry x="-0.0986" y="-1" relative="1" as="geometry">
            <mxPoint as="offset" />
          </mxGeometry>
        </mxCell>
        <mxCell id="MCfXwNq7JkfHjDpAj2Ck-9" value="" style="rounded=0;whiteSpace=wrap;html=1;shadow=0;glass=0;sketch=0;strokeWidth=0;fontSize=18;fillColor=#CCCCCC;strokeColor=#23445d;" vertex="1" parent="1">
          <mxGeometry x="582.5" y="670" width="565" height="90" as="geometry" />
        </mxCell>
        <mxCell id="MCfXwNq7JkfHjDpAj2Ck-32" style="edgeStyle=orthogonalEdgeStyle;rounded=0;orthogonalLoop=1;jettySize=auto;html=1;entryX=0.5;entryY=1;entryDx=0;entryDy=0;strokeWidth=1;fontSize=18;fillColor=#1ba1e2;strokeColor=#006EAF;" edge="1" parent="1" source="MCfXwNq7JkfHjDpAj2Ck-10" target="MCfXwNq7JkfHjDpAj2Ck-8">
          <mxGeometry relative="1" as="geometry" />
        </mxCell>
        <mxCell id="MCfXwNq7JkfHjDpAj2Ck-10" value="WorkServer" style="rounded=0;whiteSpace=wrap;html=1;fillColor=#0050ef;strokeColor=#001DBC;strokeWidth=0;glass=0;shadow=0;sketch=0;fontColor=#ffffff;fontSize=18;fontStyle=1;gradientDirection=north;" vertex="1" parent="1">
          <mxGeometry x="595" y="685" width="150" height="30" as="geometry" />
        </mxCell>
        <mxCell id="MCfXwNq7JkfHjDpAj2Ck-13" value="LoggerServer" style="rounded=0;whiteSpace=wrap;html=1;fillColor=#60a917;strokeColor=#2D7600;strokeWidth=0;glass=0;shadow=0;sketch=0;fontColor=#ffffff;fontSize=18;fontStyle=1;gradientDirection=north;" vertex="1" parent="1">
          <mxGeometry x="595" y="715" width="150" height="30" as="geometry" />
        </mxCell>
        <mxCell id="MCfXwNq7JkfHjDpAj2Ck-14" value="WorkServer" style="rounded=0;whiteSpace=wrap;html=1;fillColor=#0050ef;strokeColor=#001DBC;strokeWidth=0;glass=0;shadow=0;sketch=0;fontColor=#ffffff;fontSize=18;fontStyle=1;gradientDirection=north;" vertex="1" parent="1">
          <mxGeometry x="980" y="685" width="150" height="30" as="geometry" />
        </mxCell>
        <mxCell id="MCfXwNq7JkfHjDpAj2Ck-15" value="LoggerServer" style="rounded=0;whiteSpace=wrap;html=1;fillColor=#60a917;strokeColor=#2D7600;strokeWidth=0;glass=0;shadow=0;sketch=0;fontColor=#ffffff;fontSize=18;fontStyle=1;gradientDirection=north;" vertex="1" parent="1">
          <mxGeometry x="980" y="715" width="150" height="30" as="geometry" />
        </mxCell>
        <mxCell id="MCfXwNq7JkfHjDpAj2Ck-16" value="WorkServer" style="rounded=0;whiteSpace=wrap;html=1;fillColor=#0050ef;strokeColor=#001DBC;strokeWidth=0;glass=0;shadow=0;sketch=0;fontColor=#ffffff;fontSize=18;fontStyle=1;gradientDirection=north;" vertex="1" parent="1">
          <mxGeometry x="790" y="685" width="150" height="30" as="geometry" />
        </mxCell>
        <mxCell id="MCfXwNq7JkfHjDpAj2Ck-17" value="LoggerServer" style="rounded=0;whiteSpace=wrap;html=1;fillColor=#60a917;strokeColor=#2D7600;strokeWidth=0;glass=0;shadow=0;sketch=0;fontColor=#ffffff;fontSize=18;fontStyle=1;gradientDirection=north;" vertex="1" parent="1">
          <mxGeometry x="790" y="715" width="150" height="30" as="geometry" />
        </mxCell>
        <mxCell id="MCfXwNq7JkfHjDpAj2Ck-18" value="" style="rounded=0;whiteSpace=wrap;html=1;shadow=0;glass=0;sketch=0;strokeWidth=0;fontSize=18;fillColor=#CCCCCC;strokeColor=#23445d;" vertex="1" parent="1">
          <mxGeometry x="582.5" y="850" width="597.5" height="70" as="geometry" />
        </mxCell>
        <mxCell id="MCfXwNq7JkfHjDpAj2Ck-19" value="Shell" style="rounded=0;whiteSpace=wrap;html=1;shadow=0;glass=0;sketch=0;strokeWidth=0;fontSize=18;fillColor=#0050ef;gradientDirection=north;fontColor=#ffffff;strokeColor=#001DBC;" vertex="1" parent="1">
          <mxGeometry x="595" y="860" width="80" height="50" as="geometry" />
        </mxCell>
        <mxCell id="MCfXwNq7JkfHjDpAj2Ck-20" value="SQL" style="rounded=0;whiteSpace=wrap;html=1;shadow=0;glass=0;sketch=0;strokeWidth=0;fontSize=18;fillColor=#0050ef;gradientDirection=north;fontColor=#ffffff;strokeColor=#001DBC;" vertex="1" parent="1">
          <mxGeometry x="690" y="860" width="80" height="50" as="geometry" />
        </mxCell>
        <mxCell id="MCfXwNq7JkfHjDpAj2Ck-21" value="MR" style="rounded=0;whiteSpace=wrap;html=1;shadow=0;glass=0;sketch=0;strokeWidth=0;fontSize=18;fillColor=#0050ef;gradientDirection=north;fontColor=#ffffff;strokeColor=#001DBC;" vertex="1" parent="1">
          <mxGeometry x="790" y="860" width="80" height="50" as="geometry" />
        </mxCell>
        <mxCell id="MCfXwNq7JkfHjDpAj2Ck-22" value="Spark" style="rounded=0;whiteSpace=wrap;html=1;shadow=0;glass=0;sketch=0;strokeWidth=0;fontSize=18;fillColor=#0050ef;gradientDirection=north;fontColor=#ffffff;strokeColor=#001DBC;" vertex="1" parent="1">
          <mxGeometry x="890" y="860" width="80" height="50" as="geometry" />
        </mxCell>
        <mxCell id="MCfXwNq7JkfHjDpAj2Ck-23" value="Flink" style="rounded=0;whiteSpace=wrap;html=1;shadow=0;glass=0;sketch=0;strokeWidth=0;fontSize=18;fillColor=#0050ef;gradientDirection=north;fontColor=#ffffff;strokeColor=#001DBC;" vertex="1" parent="1">
          <mxGeometry x="990" y="860" width="80" height="50" as="geometry" />
        </mxCell>
        <mxCell id="MCfXwNq7JkfHjDpAj2Ck-24" value="··· ···" style="rounded=0;whiteSpace=wrap;html=1;shadow=0;glass=0;sketch=0;strokeWidth=0;fontSize=18;fillColor=#0050ef;gradientDirection=north;fontColor=#ffffff;strokeColor=#001DBC;" vertex="1" parent="1">
          <mxGeometry x="1090" y="865" width="70" height="40" as="geometry" />
        </mxCell>
        <mxCell id="MCfXwNq7JkfHjDpAj2Ck-27" value="DataBase" style="rounded=0;whiteSpace=wrap;html=1;shadow=0;glass=0;sketch=0;strokeWidth=0;fontSize=18;fillColor=#60a917;gradientDirection=north;fontColor=#ffffff;strokeColor=#2D7600;gradientColor=#00CC00;" vertex="1" parent="1">
          <mxGeometry x="1260" y="462.5" width="120" height="85" as="geometry" />
        </mxCell>
        <mxCell id="MCfXwNq7JkfHjDpAj2Ck-30" style="edgeStyle=orthogonalEdgeStyle;rounded=0;orthogonalLoop=1;jettySize=auto;html=1;entryX=0.5;entryY=1;entryDx=0;entryDy=0;strokeWidth=1;fontSize=18;fillColor=#1ba1e2;strokeColor=#006EAF;" edge="1" parent="1" source="MCfXwNq7JkfHjDpAj2Ck-28" target="MCfXwNq7JkfHjDpAj2Ck-27">
          <mxGeometry relative="1" as="geometry" />
        </mxCell>
        <mxCell id="MCfXwNq7JkfHjDpAj2Ck-43" value="告警信息" style="edgeLabel;html=1;align=center;verticalAlign=middle;resizable=0;points=[];fontSize=12;" vertex="1" connectable="0" parent="MCfXwNq7JkfHjDpAj2Ck-30">
          <mxGeometry x="-0.1261" relative="1" as="geometry">
            <mxPoint as="offset" />
          </mxGeometry>
        </mxCell>
        <mxCell id="MCfXwNq7JkfHjDpAj2Ck-28" value="Alert" style="rounded=0;whiteSpace=wrap;html=1;shadow=0;glass=0;sketch=0;strokeWidth=0;fontSize=18;fillColor=#60a917;gradientDirection=north;fontColor=#ffffff;strokeColor=#2D7600;gradientColor=#00CC00;" vertex="1" parent="1">
          <mxGeometry x="1270" y="690" width="100" height="50" as="geometry" />
        </mxCell>
        <mxCell id="MCfXwNq7JkfHjDpAj2Ck-33" style="edgeStyle=orthogonalEdgeStyle;rounded=0;orthogonalLoop=1;jettySize=auto;html=1;entryX=0;entryY=0.5;entryDx=0;entryDy=0;strokeWidth=1;fontSize=18;fillColor=#dae8fc;strokeColor=#6c8ebf;" edge="1" parent="1" source="MCfXwNq7JkfHjDpAj2Ck-2" target="MCfXwNq7JkfHjDpAj2Ck-13">
          <mxGeometry relative="1" as="geometry">
            <Array as="points">
              <mxPoint x="540" y="350" />
              <mxPoint x="540" y="730" />
            </Array>
          </mxGeometry>
        </mxCell>
        <mxCell id="MCfXwNq7JkfHjDpAj2Ck-47" value="请求任务日志" style="edgeLabel;html=1;align=center;verticalAlign=middle;resizable=0;points=[];fontSize=12;" vertex="1" connectable="0" parent="MCfXwNq7JkfHjDpAj2Ck-33">
          <mxGeometry x="-0.5924" y="-3" relative="1" as="geometry">
            <mxPoint x="1" y="-7" as="offset" />
          </mxGeometry>
        </mxCell>
      </root>
    </mxGraphModel>
  </diagram>
</mxfile>
